HIERARCHY
ROOT Hips
{
	OFFSET 0.000000 88.474243 0.000000
	CHANNELS 6 Xposition Yposition Zposition Zrotation Yrotation Xrotation 
	JOINT Hips_Spine
	{
		OFFSET 0.000000 0.000000 0.000000
		CHANNELS 3 Zrotation Yrotation Xrotation
		JOINT Spine
		{
			OFFSET 0.005100 8.711998 -0.691000
			CHANNELS 3 Zrotation Yrotation Xrotation
			JOINT Spine1
			{
				OFFSET -0.009200 8.660301 -1.275000
				CHANNELS 3 Zrotation Yrotation Xrotation
				JOINT Spine2
				{
					OFFSET 0.006300 9.852501 -1.857000
					CHANNELS 3 Zrotation Yrotation Xrotation
					JOINT Spine2_Neck
					{
						OFFSET 0.000000 0.000000 0.000000
						CHANNELS 3 Zrotation Yrotation Xrotation
						JOINT Neck
						{
							OFFSET 0.016300 11.420799 -0.263300
							CHANNELS 3 Zrotation Yrotation Xrotation
							End Site #name: Head
							{
								OFFSET -0.019200 9.262405 2.362500
							}
						}
					}
					JOINT Spine2_LeftShoulder
					{
						OFFSET 0.000000 0.000000 0.000000
						CHANNELS 3 Zrotation Yrotation Xrotation
						JOINT LeftShoulder
						{
							OFFSET 5.616900 6.732201 -0.345700
							CHANNELS 3 Zrotation Yrotation Xrotation
							JOINT LeftArm
							{
								OFFSET 10.664888 -0.183372 -2.440700
								CHANNELS 3 Zrotation Yrotation Xrotation
								JOINT LeftForeArm
								{
									OFFSET 27.459126 0.000000 0.000000
									CHANNELS 3 Zrotation Yrotation Xrotation
									End Site #name: LeftHand
									{
										OFFSET 21.306858 0.000000 0.000000
									}
								}
							}
						}
					}
					JOINT Spine2_RightShoulder
					{
						OFFSET 0.000000 0.000000 0.000000
						CHANNELS 3 Zrotation Yrotation Xrotation
						JOINT RightShoulder
						{
							OFFSET -5.580300 6.737503 -0.344400
							CHANNELS 3 Zrotation Yrotation Xrotation
							JOINT RightArm
							{
								OFFSET -10.679335 -0.188484 -2.383900
								CHANNELS 3 Zrotation Yrotation Xrotation
								JOINT RightForeArm
								{
									OFFSET -27.503529 0.000000 0.000000
									CHANNELS 3 Zrotation Yrotation Xrotation
									End Site #name: RightHand
									{
										OFFSET -21.306808 0.000000 0.000000
									}
								}
							}
						}
					}
				}
			}
		}
	}
	JOINT Hips_LeftUpLeg
	{
		OFFSET 0.000000 0.000000 0.000000
		CHANNELS 3 Zrotation Yrotation Xrotation
		JOINT LeftUpLeg
		{
			OFFSET 6.857700 -6.739601 0.312100
			CHANNELS 3 Zrotation Yrotation Xrotation
			JOINT LeftLeg
			{
				OFFSET -0.367590 -34.731552 -4.572400
				CHANNELS 3 Zrotation Yrotation Xrotation
				End Site #name: LeftFoot
				{
					OFFSET 0.367590 -34.656704 -6.067400
				}
			}
		}
	}
	JOINT Hips_RightUpLeg
	{
		OFFSET 0.000000 0.000000 0.000000
		CHANNELS 3 Zrotation Yrotation Xrotation
		JOINT RightUpLeg
		{
			OFFSET -6.876100 -6.733299 0.301000
			CHANNELS 3 Zrotation Yrotation Xrotation
			JOINT RightLeg
			{
				OFFSET 0.347353 -34.795158 -4.515900
				CHANNELS 3 Zrotation Yrotation Xrotation
				End Site #name: RightFoot
				{
					OFFSET -0.347353 -34.589367 -6.070300
				}
			}
		}
	}
}
MOTION
Frames: 6
Frame Time: 0.041667
3.178768 0.560315 -4.955683 174.840821 -13.864931 -178.965642 0.000000 -0.000000 0.000000 -5.915115 -1.493050 5.095068 0.271779 -2.344943 1.213182 0.000000 0.000000 0.000000 0.886699 -2.001569 1.823648 1.643104 -29.255372 -2.801744 -0.151436 -1.813689 -0.527396 2.215635 -9.223539 1.021764 -86.781562 -23.121108 13.545070 4.819020 -14.602938 0.805747 0.162492 -2.725039 0.068494 16.280488 15.010803 3.368341 55.128507 10.559324 7.857711 -1.238142 51.505628 3.299981 0.000000 0.000000 0.000000 -3.004800 15.310389 -5.333439 -0.245511 -35.881984 -14.049195 0.000000 0.000000 -0.000000 -4.699429 -50.093214 -11.766858 -12.786940 -6.206003 23.729431 
3.255155 0.617091 -5.077861 174.817347 -13.666447 -178.967925 0.000000 -0.000000 0.000000 -6.157341 -1.394789 5.289296 0.213833 -2.239250 1.214300 0.000000 0.000000 0.000000 0.810571 -1.959451 1.802142 1.507578 -28.470517 -3.249114 -0.191297 -1.756849 -0.512477 2.215212 -9.639733 1.142005 -86.436052 -23.306466 13.529866 4.646373 -15.950001 0.710368 0.113341 -2.653793 0.030764 16.017382 15.094879 3.323017 55.043246 10.570098 8.215256 -1.567397 51.209428 2.900739 0.000000 0.000000 0.000000 -3.007534 15.038254 -5.807335 -0.434421 -35.703859 -13.493649 0.000000 0.000000 -0.000000 -4.530312 -49.185530 -11.791736 -12.124443 -5.397769 23.336627 
3.333862 0.672448 -5.194066 174.752401 -13.847610 -178.947918 0.000000 -0.000000 0.000000 -6.424763 -1.259708 5.517483 0.157680 -2.157707 1.216182 0.000000 0.000000 0.000000 0.736633 -1.906835 1.809449 1.408966 -27.537769 -3.796396 -0.227062 -1.686270 -0.476317 2.240420 -9.929153 1.202858 -86.004211 -23.428282 13.408153 4.487375 -17.713267 0.601222 0.067887 -2.570654 0.012698 15.747910 15.179800 3.272864 54.979712 10.570132 8.380357 -1.867686 50.957191 2.590631 0.000000 0.000000 0.000000 -2.992761 14.726808 -6.264300 -0.651095 -35.527719 -12.901362 0.000000 0.000000 -0.000000 -4.402193 -48.472499 -11.788274 -11.468099 -4.517397 22.996527 
3.415286 0.725083 -5.305799 174.639640 -14.336103 -178.901843 0.000000 -0.000000 0.000000 -6.691356 -1.108161 5.746871 0.095610 -2.066065 1.225785 0.000000 0.000000 0.000000 0.658388 -1.849269 1.815037 1.477044 -26.499750 -4.464372 -0.263677 -1.603958 -0.437549 2.290010 -10.130822 1.219069 -85.483076 -23.493016 13.238931 4.368137 -19.850231 0.509933 0.022651 -2.484001 0.002808 15.480276 15.290791 3.220295 54.918745 10.600485 8.445750 -2.121503 50.835460 2.369578 0.000000 0.000000 -0.000000 -2.987168 14.357804 -6.711398 -0.887178 -35.347091 -12.293376 0.000000 0.000000 -0.000000 -4.260686 -47.964952 -11.772540 -10.830939 -3.474477 22.704730 
3.500136 0.774742 -5.414202 174.468685 -15.046166 -178.826626 0.000000 -0.000000 0.000000 -6.944078 -0.952379 5.967484 0.017309 -1.967789 1.214948 0.000000 0.000000 0.000000 0.575738 -1.787401 1.809450 1.473879 -25.351710 -5.175466 -0.304789 -1.519667 -0.403310 2.353266 -10.327219 1.232147 -84.885131 -23.548109 13.023717 4.302282 -22.027013 0.257101 -0.031532 -2.399844 -0.029508 15.227923 15.451704 3.169761 54.848077 10.668472 8.410651 -2.349679 50.901349 2.127712 0.000000 0.000000 -0.000000 -3.001181 13.919796 -7.185642 -1.150868 -35.146337 -11.650462 0.000000 0.000000 -0.000000 -4.144523 -47.836831 -11.715522 -10.295852 -2.304805 22.427499 
3.590147 0.821084 -5.520861 174.225114 -15.998953 -178.717775 -0.000000 -0.000000 0.000000 -7.213614 -0.806594 6.183581 -0.074591 -1.864487 1.191812 0.000000 0.000000 0.000000 0.490725 -1.724918 1.789458 1.334766 -24.081306 -5.945376 -0.350879 -1.430344 -0.378591 2.410848 -10.512405 1.245416 -84.221849 -23.599736 12.827903 4.284902 -24.270156 -0.066804 -0.092548 -2.312136 -0.074931 14.992722 15.676508 3.123173 54.782795 10.763716 8.288055 -2.571096 51.179677 1.891896 0.000000 0.000000 -0.000000 -3.039908 13.442065 -7.692223 -1.442081 -34.919441 -10.959050 0.000000 -0.000000 -0.000000 -4.121655 -48.140493 -11.566344 -9.605366 -1.156796 22.119770 
